<svg width="218" height="126" xmlns="http://www.w3.org/2000/svg">
 <g>
  <title>Layer 1</title>
  <g id="svg_1">
   <path id="svg_4" d="m61.08451,6.44955c-28.44042,0 -51.50001,15.39088 -51.50001,34.37782c0,10.86017 7.56988,20.53648 19.35572,26.83426c-1.67696,5.58344 -5.02361,11.76754 -11.49182,17.23712c0,0 15.09818,-1.00373 25.76226,-11.86538c0.61393,0.15124 1.2494,0.26507 1.86914,0.40472c-0.58242,-1.74552 -0.92531,-3.56009 -0.92531,-5.4481c0,-12.81012 14.20021,-22.84075 32.33656,-22.84075c13.02664,0 23.98776,5.19459 29.14757,12.85909c4.39251,-5.05928 6.94587,-10.91925 6.94587,-17.18533c0,-18.98258 -23.05959,-34.37346 -51.49999,-34.37346l0,0l0.00001,0.00001zm43.97889,61.54339c0,-10.53187 -12.78999,-19.07624 -28.57666,-19.07624c-15.77805,0 -28.57525,8.54437 -28.57525,19.07624c0,10.53752 12.7972,19.07763 28.57525,19.07763c3.49439,0 6.82248,-0.43927 9.91672,-1.20536c5.91586,6.02988 14.29331,6.58435 14.29331,6.58435c-3.5876,-3.03589 -5.44098,-6.46637 -6.37348,-9.567c6.53563,-3.49087 10.74011,-8.85981 10.74011,-14.88962z" stroke-width="2" fill="#7f00ff"/>
   <path fill="#333333" stroke="#333333" stroke-width="2" d="m210.41513,82.88985c0,-14.9914 -42.08525,-27.14435 -94.00002,-27.14435l0,-21.71548l0,0c51.91477,0 94.00002,12.15294 94.00002,27.14435l0,21.71548c0,12.37778 -28.99727,23.18796 -70.50001,26.28241l0,10.85774l-23.5,-20.85354l23.5,-22.57743l0,10.85774l0,0c27.98562,-2.0866 51.09107,-7.77504 62.65245,-15.42467" id="svg_18"/>
  </g>
 </g>

</svg>