<svg width="361" height="105" xmlns="http://www.w3.org/2000/svg">
 <g>
  <title>Layer 1</title>
  <text transform="rotate(-0.000800002 234.883 45.6236) matrix(3.66256 0 0 3.50804 -1215.76 -902.621)" font-style="normal" font-weight="normal" xml:space="preserve" text-anchor="start" font-family="'Open Sans Light'" font-size="24" id="svg_3" y="279.65099" x="363.32917" fill="#4c4c4c" stroke="#4c4c4c">Tiqray</text>
  <path id="svg_4" d="m61.08451,4.44955c-28.44042,0 -51.50001,15.39088 -51.50001,34.37782c0,10.86017 7.56988,20.53648 19.35572,26.83426c-1.67696,5.58344 -5.02361,11.76754 -11.49182,17.23712c0,0 15.09818,-1.00373 25.76226,-11.86538c0.61393,0.15124 1.2494,0.26507 1.86914,0.40472c-0.58242,-1.74552 -0.92531,-3.56009 -0.92531,-5.4481c0,-12.81012 14.20021,-22.84075 32.33656,-22.84075c13.02664,0 23.98776,5.19459 29.14757,12.85909c4.39251,-5.05928 6.94587,-10.91925 6.94587,-17.18533c0,-18.98258 -23.05959,-34.37346 -51.49999,-34.37346l0,0l0.00001,0.00001zm43.97889,61.54339c0,-10.53187 -12.78999,-19.07624 -28.57666,-19.07624c-15.77805,0 -28.57525,8.54437 -28.57525,19.07624c0,10.53752 12.7972,19.07763 28.57525,19.07763c3.49439,0 6.82248,-0.43927 9.91672,-1.20536c5.91586,6.02988 14.29331,6.58435 14.29331,6.58435c-3.5876,-3.03589 -5.44098,-6.46637 -6.37348,-9.567c6.53563,-3.49087 10.74011,-8.85981 10.74011,-14.88962z" stroke-width="2" fill="#7f00ff"/>
 </g>

</svg>